<svg xmlns="http://www.w3.org/2000/svg" version="1.1" xmlns:xlink="http://www.w3.org/1999/xlink" xmlns:svgjs="http://svgjs.dev/svgjs" width="1000" height="750" viewBox="0 0 1000 750"><rect width="1000" height="750" fill="#000000"></rect><g transform="matrix(0.6058091286307054,0,0,0.6058091286307054,197.4340805304803,83.23644910646982)"><svg viewBox="0 0 256 247" data-background-color="#ca3433" preserveAspectRatio="xMidYMid meet" height="964" width="1000" xmlns="http://www.w3.org/2000/svg" xmlns:xlink="http://www.w3.org/1999/xlink"><g id="tight-bounds" transform="matrix(1,0,0,1,-0.14310296170211245,-0.09999498407873375)"><svg viewBox="0 0 256.2862059234042 247.2" height="247.2" width="256.2862059234042"><g><svg viewBox="0 0 256.2862059234043 247.20000000000002" height="247.2" width="256.2862059234042"><g><svg viewBox="0 0 122.32893617021276 247.20000000000002" height="247.20000000000002" width="122.32893617021276"><g><svg viewBox="0 0 122.32893617021276 247.20000000000002" height="247.20000000000002" width="122.32893617021276"><g><svg viewBox="0 0 122.32893617021276 247.20000000000002" height="247.20000000000002" width="122.32893617021276"><g transform="matrix(1,0,0,1,0,0)"><svg width="122.32893617021276" viewBox="1.4934210777282715 -37.099998474121094 18.606578826904297 37.599998474121094" height="247.20000000000002" data-palette-color="#ffffff"><path d="M20.1-10.15L20.1-10.15Q20.1-4.35 17.3-1.93 14.5 0.5 8.95 0.5L8.95 0.5Q7.3 0.5 5.83 0.3 4.35 0.1 2.85-0.2L2.85-0.2Q2.1-0.35 1.78-0.78 1.45-1.2 1.5-2.1L1.5-2.1 1.95-7.25Q2.05-8.4 3.05-8.25L3.05-8.25Q3.65-8.15 4.38-7.98 5.1-7.8 6.05-7.8L6.05-7.8Q7.95-7.8 8.97-8.88 10-9.95 10-12.6L10-12.6 10-36.05Q10-37.1 10.9-37.1L10.9-37.1 19.25-37.1Q20.1-37.1 20.1-36.15L20.1-36.15 20.1-10.15Z" opacity="1" transform="matrix(1,0,0,1,0,0)" fill="#ffffff" class="undefined-text-0" data-fill-palette-color="primary" id="text-0"></path></svg></g></svg></g></svg></g></svg></g><g transform="matrix(1,0,0,1,180.68692337021275,80.40040996960488)"><svg viewBox="0 0 75.59928255319149 86.39918006079027" height="86.39918006079027" width="75.59928255319149"><g><svg xmlns="http://www.w3.org/2000/svg" xmlns:xlink="http://www.w3.org/1999/xlink" version="1.1" x="0" y="0" viewBox="0 0 28 32" style="enable-background:new 0 0 28 32;" xml:space="preserve" height="86.39918006079027" width="75.59928255319149" class="icon-icon-0" data-fill-palette-color="accent" id="icon-0"><g fill="#ffffff" data-fill-palette-color="accent"><g fill="#ffffff" data-fill-palette-color="accent"><g fill="#ffffff" data-fill-palette-color="accent"><polygon points="9.815,21.969 11.702,21.969 10.798,19.994    " fill="#ffffff" data-fill-palette-color="accent"></polygon><path d="M23 15H1c-0.55 0-1 0.45-1 1v10c0 0.55 0.45 1 1 1h22c0.551 0 1-0.45 1-1V16C24 15.45 23.551 15 23 15zM12.622 23.729l-0.353-0.704h-2.95l-0.344 0.704C8.847 24 8.551 24.057 8.264 24c-0.256-0.145-0.416-0.432-0.256-0.768l2.294-4.485c0.216-0.424 0.792-0.44 0.992 0l2.254 4.485C13.876 23.855 12.909 24.352 12.622 23.729zM15.559 23.512c0 0.664-1.055 0.68-1.055 0v-4.564c0-0.656 1.055-0.68 1.055 0V23.512z" fill="#ffffff" data-fill-palette-color="accent"></path></g><path d="M27 7.586L20.414 1C19.836 0.42 18.82 0 18 0H7C5.346 0 4 1.346 4 3v10c0 0.553 0.447 1 1 1s1-0.447 1-1V3c0-0.551 0.448-1 1-1h9c1.105 0 2 0.896 2 2v3.75C18 8.988 19.014 10 20.25 10H24c1.105 0 2 0.896 2 2v17c0 0.551-0.447 1-1 1H7c-0.552 0-1-0.449-1-1 0-0.553-0.447-1-1-1s-1 0.447-1 1c0 1.654 1.346 3 3 3h18c1.654 0 3-1.346 3-3V10C28 9.181 27.58 8.165 27 7.586z" fill="#ffffff" data-fill-palette-color="accent"></path></g></g></svg></g></svg></g></svg></g><defs></defs></svg><rect width="256.2862059234042" height="247.2" fill="none" stroke="none" visibility="hidden"></rect></g></svg></g></svg>